<svg width="78" height="24" viewBox="0 0 78 24" fill="none" xmlns="http://www.w3.org/2000/svg">
<path d="M41.3702 0L37.2203 0.000207381V19.7122H41.3702V13.4692H41.9315C42.5228 13.4735 43.0356 13.8073 43.2953 14.2964L45.7442 18.9021C45.9722 19.3185 46.385 19.619 46.8724 19.6937C46.9731 19.7058 47.0784 19.7122 47.1891 19.7122H51.001L47.2691 13.3051C46.969 12.7959 46.3685 12.2692 45.6283 12.1724C46.2071 12.0057 46.5693 11.6913 46.919 11.2101L50.9176 5.70631H47.0441C46.9278 5.70631 46.8188 5.71353 46.7163 5.72728C46.2887 5.79675 45.9196 6.03989 45.6841 6.38259C45.6827 6.38455 45.6815 6.38623 45.6802 6.38817L43.0884 10.2307C42.8057 10.6213 42.346 10.8753 41.8269 10.8753H41.3702L41.3702 0ZM7.6305 0.000207381L0 19.7122H3.38182C3.50037 19.7116 3.61846 19.6974 3.73379 19.67C3.7651 19.6629 3.79619 19.6549 3.827 19.646C3.8675 19.6343 3.90706 19.6212 3.94575 19.6064C4.0407 19.5703 4.13024 19.525 4.21423 19.4704C4.22139 19.4657 4.22852 19.461 4.23561 19.4563C4.25656 19.4421 4.27726 19.4275 4.29751 19.4121C4.29793 19.4115 4.29823 19.4115 4.29863 19.4111C4.58286 19.2034 4.78198 18.8544 4.8813 18.5659L5.86811 15.7001H14.1292L15.116 18.5659C15.2153 18.8544 15.4145 19.2034 15.6987 19.4111C15.6991 19.4117 15.6994 19.4117 15.6998 19.4121C15.7201 19.4275 15.7408 19.4421 15.7617 19.4563C15.7688 19.4611 15.7759 19.4658 15.7831 19.4704C15.8671 19.525 15.9566 19.5703 16.0516 19.6064C16.0903 19.6211 16.1298 19.6343 16.1703 19.646C16.2011 19.6549 16.2322 19.6629 16.2635 19.67C16.3789 19.6974 16.4969 19.7116 16.6155 19.7122H19.9973L12.3668 0.000207381H7.6305ZM53.1562 0.000207381V19.7122H57.3061V0.000207381H53.1562ZM9.99866 3.70421L13.0576 12.5878H6.93973L9.99866 3.70421ZM59.8998 5.70469V19.7122H64.0497V5.70632C63.4333 6.11094 62.7122 6.3268 61.9748 6.32738C61.2373 6.3262 60.5161 6.10989 59.8998 5.70469ZM21.6069 5.70631V24H25.7568V18.553C26.6462 19.3071 27.8536 19.7122 29.0887 19.7122C30.0169 19.7122 30.8073 19.5259 31.5438 19.153C32.2894 18.7803 32.9256 18.2617 33.4533 17.5982C34.5479 16.2219 35.1169 14.5278 35.1445 12.6623C35.1679 11.084 34.7285 9.1358 33.6851 7.61581C33.2507 6.98309 32.6894 6.52473 32.062 6.19739C31.4346 5.87005 30.7526 5.70631 30.0161 5.70631C29.5251 5.70631 29.0703 5.7553 28.6523 5.85636C28.2429 5.95534 27.8445 6.0748 27.493 6.27915C26.8341 6.66212 26.2729 7.10024 25.7568 7.72493L25.6256 6.98583C25.6244 6.97928 25.6261 6.98887 25.6237 6.9758C25.4891 6.25331 24.8553 5.70631 24.0938 5.70631L21.6069 5.70631ZM72.6401 5.70631C71.7127 5.70833 70.9028 5.82895 70.209 6.07095C68.4592 6.68136 67.1026 7.80684 67.1026 9.92024C67.1026 11.9129 68.4052 12.9644 70.3711 13.7695C71.0717 14.0564 71.8605 14.2125 72.6132 14.5259C72.9188 14.6531 73.1669 14.805 73.356 14.9851C73.5451 15.1652 73.6407 15.3947 73.6396 15.6739C73.6382 15.9825 73.5011 16.2917 73.2479 16.5112C72.8888 16.8227 72.3717 16.8881 71.8838 16.8895C71.0933 16.8916 70.3132 16.5931 69.557 16.1647C69.5564 16.1647 69.5561 16.1641 69.5558 16.1641C69.3309 16.0379 69.0714 15.966 68.7952 15.966C68.2329 15.966 67.741 16.2645 67.4675 16.7113L66.6433 18.1996C67.8456 19.1294 69.9712 19.7122 71.6676 19.7122C72.622 19.7122 73.4635 19.5939 74.1933 19.3611C74.9312 19.1256 75.5482 18.7982 76.0436 18.3751C77.0321 17.5311 77.5563 16.3723 77.5563 14.9446C77.5563 13.6241 76.7201 12.6158 75.5033 11.9597C75.1205 11.7533 74.7199 11.5905 74.3148 11.4465C73.9096 11.3024 73.5134 11.1718 73.1262 11.0548C72.7391 10.9377 72.3925 10.8162 72.0863 10.6901C71.7802 10.5551 71.5326 10.4019 71.3435 10.2309C71.1634 10.0598 71.0734 9.84368 71.0734 9.58256C71.0734 9.2224 71.3119 8.94327 71.591 8.74518C71.8791 8.53808 72.2888 8.43304 72.8201 8.43455C73.5089 8.43651 74.185 8.70615 74.8676 9.0085C75.0559 9.0893 75.2631 9.13423 75.4809 9.13423C75.9999 9.13423 76.4596 8.88014 76.7423 8.48956C76.7429 8.48897 76.7431 8.48894 76.7435 8.48855L77.4753 7.51612C76.4304 6.50872 74.346 5.70258 72.6401 5.70631ZM28.5432 8.9388C29.1692 8.94409 29.7839 9.22536 30.1526 9.82531C30.672 10.6705 30.7632 11.6458 30.78 12.6623C30.7955 13.6057 30.5422 14.7639 30.0026 15.6342C29.8056 15.9518 29.4842 16.216 29.1569 16.3706C28.8295 16.5252 28.4704 16.6025 28.0794 16.6025C27.6702 16.6025 27.2778 16.5383 26.9064 16.398C26.5321 16.2565 26.0751 15.9169 25.7568 15.5623V10.2755C26.3618 9.56724 27.4615 8.92965 28.5432 8.9388Z" fill="#F9F9FB"/>
<path d="M61.9747 5.18755C63.4072 5.18755 64.5684 4.02632 64.5684 2.59387C64.5684 1.16142 63.4072 0.000183105 61.9747 0.000183105C60.5423 0.000183105 59.381 1.16142 59.381 2.59387C59.381 4.02632 60.5423 5.18755 61.9747 5.18755Z" fill="#FA7001"/>
</svg>
