<?xml version="1.0" encoding="UTF-8" standalone="no"?>
<svg
   xmlns:dc="http://purl.org/dc/elements/1.1/"
   xmlns:cc="http://creativecommons.org/ns#"
   xmlns:rdf="http://www.w3.org/1999/02/22-rdf-syntax-ns#"
   xmlns:svg="http://www.w3.org/2000/svg"
   xmlns="http://www.w3.org/2000/svg"
   xmlns:sodipodi="http://sodipodi.sourceforge.net/DTD/sodipodi-0.dtd"
   xmlns:inkscape="http://www.inkscape.org/namespaces/inkscape"
   width="40"
   height="7.383"
   viewBox="0 0 10.584 1.953"
   version="1.1"
   id="svg10"
   sodipodi:docname="apklis-app.svg"
   inkscape:version="0.92.1 r15371">
  <metadata
     id="metadata16">
    <rdf:RDF>
      <cc:Work
         rdf:about="">
        <dc:format>image/svg+xml</dc:format>
        <dc:type
           rdf:resource="http://purl.org/dc/dcmitype/StillImage" />
      </cc:Work>
    </rdf:RDF>
  </metadata>
  <defs
     id="defs14" />
  <sodipodi:namedview
     pagecolor="#ffffff"
     bordercolor="#666666"
     borderopacity="1"
     objecttolerance="10"
     gridtolerance="10"
     guidetolerance="10"
     inkscape:pageopacity="0"
     inkscape:pageshadow="2"
     inkscape:window-width="640"
     inkscape:window-height="480"
     id="namedview12"
     showgrid="false"
     inkscape:zoom="12.275"
     inkscape:cx="20"
     inkscape:cy="3.6914999"
     inkscape:current-layer="svg10" />
  <g
     font-weight="900"
     font-family="Lato"
     letter-spacing="0"
     word-spacing="0"
     id="g8">
    <path
       d="M1.572 1.603h-.28q-.046 0-.077-.022-.03-.022-.042-.056l-.092-.271h-.59l-.092.27q-.01.03-.042.055-.03.024-.075.024H0L.601.049h.37zm-.998-.594h.424L.855.583.822.488Q.804.433.786.368.769.435.751.49.733.545.717.585zM1.696 1.954V.497h.205q.031 0 .051.014.022.013.03.041l.025.081q.032-.035.068-.064.037-.029.079-.049.043-.021.09-.033.05-.012.107-.012.087 0 .16.039.074.038.127.11.053.073.083.179.031.104.031.238 0 .124-.035.23-.034.106-.097.183-.062.078-.15.122-.086.044-.191.044-.087 0-.145-.025-.059-.024-.107-.066v.424zm.54-1.226q-.036 0-.066.008-.029.006-.055.019-.024.013-.045.033-.022.019-.043.045v.469q.037.042.081.059.044.016.092.016.046 0 .084-.018.038-.019.066-.058.029-.04.045-.105.016-.064.016-.155 0-.088-.013-.147-.013-.06-.036-.096Q2.339.76 2.307.744T2.236.728zM3.26.006v.895h.05q.03 0 .046-.009.017-.008.032-.03L3.597.55q.018-.028.043-.04.025-.013.064-.013h.303L3.72.89q-.02.028-.045.05-.024.021-.051.038.048.036.083.096l.311.529h-.298q-.038 0-.065-.012-.027-.013-.044-.044l-.209-.39q-.015-.028-.031-.035-.016-.009-.048-.009H3.26v.49h-.33V.006zM4.5.006v1.597h-.331V.006zM5.108.497v1.106h-.33V.497z"
       style="line-height:1.25;-inkscape-font-specification:'Lato Heavy';font-variant-ligatures:normal;font-variant-caps:normal;font-variant-numeric:normal;font-feature-settings:normal;text-align:start"
       fill="#ecf1f5"
       id="path2" />
    <path
       style="line-height:1.25;-inkscape-font-specification:'Lato Heavy';font-variant-ligatures:normal;font-variant-caps:normal;font-variant-numeric:normal;font-feature-settings:normal;text-align:start;fill:#f15222;fill-opacity:1"
       d="M5.146.194q0 .04-.016.075-.016.034-.043.06-.028.026-.065.042-.037.015-.078.015-.04 0-.076-.015-.035-.016-.063-.042-.027-.026-.043-.06-.014-.036-.014-.075 0-.04.014-.076.017-.035.043-.062.028-.026.063-.041Q4.903 0 4.944 0q.041 0 .078.015t.065.041q.027.027.043.062.016.035.016.076z"
       fill="#ed134b"
       id="path4" />
    <path
       d="M6.05.739q-.012.02-.027.029-.014.008-.036.008-.024 0-.047-.01L5.889.745Q5.862.732 5.828.723q-.034-.01-.078-.01-.063 0-.097.024Q5.62.76 5.62.803q0 .03.021.051.023.02.06.036.035.015.081.029.046.014.094.031t.094.04q.046.023.082.057.036.033.058.081.022.048.022.115 0 .082-.03.152-.03.069-.09.12-.058.05-.145.077-.087.028-.2.028-.056 0-.113-.01-.056-.011-.11-.03-.052-.018-.097-.042-.045-.026-.077-.055l.077-.121q.014-.022.033-.033.02-.013.05-.013.03 0 .052.013l.05.027q.026.015.062.028.036.013.09.013.039 0 .065-.008.027-.008.043-.022.016-.014.024-.031.007-.017.007-.035 0-.033-.023-.055-.022-.021-.058-.036-.036-.016-.083-.029-.046-.013-.094-.03-.048-.018-.095-.041-.046-.025-.082-.06-.037-.038-.059-.092Q5.307.905 5.307.83q0-.07.026-.133.028-.064.082-.112.055-.048.137-.076.082-.028.192-.028.06 0 .115.01.057.01.106.03.049.02.09.046.04.026.07.056zM8.17 1.603h-.279q-.047 0-.078-.022-.03-.022-.041-.056l-.092-.271h-.59l-.092.27q-.011.03-.042.055-.031.024-.076.024H6.6L7.2.049h.37zm-.998-.594h.425L7.454.583 7.421.488q-.018-.055-.036-.12-.017.066-.036.121-.018.056-.034.096zM8.295 1.954V.497H8.5q.03 0 .051.014.021.013.03.041l.024.081q.032-.035.069-.064Q8.71.54 8.753.52q.042-.021.09-.033.05-.012.107-.012.086 0 .16.039.073.038.127.11.053.073.083.179.03.104.03.238 0 .124-.034.23-.034.106-.097.183-.062.078-.15.122-.086.044-.192.044-.086 0-.145-.025-.058-.024-.106-.066v.424zm.54-1.226q-.037 0-.066.008-.03.006-.055.019-.024.013-.046.033-.021.019-.042.045v.469q.037.042.08.059.044.016.092.016.046 0 .085-.018.038-.019.066-.058.029-.04.045-.105.016-.064.016-.155 0-.088-.013-.147-.013-.06-.036-.096Q8.938.76 8.906.744T8.835.728zM9.528 1.954V.497h.205q.03 0 .051.014.021.013.03.041l.025.081Q9.87.598 9.907.57 9.944.54 9.986.52q.042-.021.09-.033.05-.012.107-.012.086 0 .16.039.074.038.127.11.053.073.083.179.031.104.031.238 0 .124-.035.23-.034.106-.097.183-.062.078-.15.122-.086.044-.192.044-.086 0-.145-.025-.058-.024-.106-.066v.424zm.54-1.226q-.037 0-.066.008-.03.006-.055.019-.024.013-.046.033-.021.019-.042.045v.469q.037.042.08.059.044.016.092.016.046 0 .085-.018.038-.019.066-.058.029-.04.045-.105.015-.064.015-.155 0-.088-.012-.147-.013-.06-.036-.096-.023-.038-.055-.054t-.071-.016z"
       style="line-height:1.25;-inkscape-font-specification:'Lato Heavy';font-variant-ligatures:normal;font-variant-caps:normal;font-variant-numeric:normal;font-feature-settings:normal;text-align:start"
       fill="#ecf1f5"
       id="path6" />
  </g>
</svg>
