<svg xmlns="http://www.w3.org/2000/svg" xmlns:xlink="http://www.w3.org/1999/xlink" width="24" height="24" data-name="Layer 2" viewBox="0 0 24 24">
  <defs>
    <radialGradient id="g" cx="1950.91" cy="820.62" r="332.22" gradientTransform="matrix(.39 -.92 .41 .18 843.01 2468.32)" gradientUnits="userSpaceOnUse">
      <stop offset="0" stop-color="#f2551f"/>
      <stop offset="1" stop-color="#f0e106"/>
    </radialGradient>
    <linearGradient id="h">
      <stop offset="0" stop-color="#f15222"/>
      <stop offset="1" stop-color="#fa7001"/>
    </linearGradient>
    <radialGradient id="c" cx="2213.9" cy="-1168.12" r="145.64" gradientTransform="matrix(.67 .75 -.38 .34 300.66 -2428.1)" gradientUnits="userSpaceOnUse">
      <stop offset=".44" stop-color="#f15222"/>
      <stop offset=".8" stop-color="#f6640e"/>
      <stop offset="1" stop-color="#fa7001"/>
    </radialGradient>
    <radialGradient id="d" cx="1979.52" cy="-1191.62" r="549.78" gradientTransform="matrix(.85044 -.52607 .33142 .53578 689.68 485.98)" gradientUnits="userSpaceOnUse">
      <stop offset="0" stop-color="#ee7207"/>
      <stop offset=".84" stop-color="#f0e106"/>
    </radialGradient>
    <radialGradient id="e" cx="2025.6" cy="-1169.66" r="475.61" gradientTransform="matrix(.77461 -.63243 .27827 .34083 782.9 511.06)" gradientUnits="userSpaceOnUse">
      <stop offset="0" stop-color="#ee7207"/>
      <stop offset=".78" stop-color="#f0e106"/>
    </radialGradient>
    <radialGradient id="f" cx="2088.87" cy="-1151.04" r="284.54" gradientTransform="matrix(.8 -.6 .3 .4 766.99 567.64)" gradientUnits="userSpaceOnUse">
      <stop offset="0" stop-color="#ee7207"/>
      <stop offset="1" stop-color="#f0e106"/>
    </radialGradient>
    <linearGradient id="a" x1="5336.28" x2="5328.64" y1="261.5" y2="348.01" gradientUnits="userSpaceOnUse">
      <stop offset="0" stop-color="#ee7207"/>
      <stop offset="1" stop-color="#eb3c03"/>
    </linearGradient>
    <linearGradient id="b" x1="5333.91" x2="5371.62" y1="230.27" y2="230.27" gradientUnits="userSpaceOnUse">
      <stop offset="0" stop-color="#f0e106"/>
      <stop offset="1" stop-color="#eb3c03"/>
    </linearGradient>
    <linearGradient id="q" x1="9214.33" x2="9206.69" y1="734.82" y2="821.32" gradientTransform="matrix(-1 0 0 1 9665.824 -512.47)" xlink:href="#a"/>
    <linearGradient id="r" x1="9211.86" x2="9249.56" y1="703.58" y2="703.58" gradientTransform="matrix(-1 0 0 1 9665.824 -512.47)" xlink:href="#b"/>
    <linearGradient id="s" x1="9332.47" x2="9310.71" y1="512.16" y2="581.2" gradientTransform="matrix(-1 0 0 1 9665.824 -512.47)" xlink:href="#a"/>
    <radialGradient id="t" cx="9379.521" cy="955.602" r="155.1" fx="9379.521" fy="955.602" gradientTransform="matrix(-.67 .75 .38 .34 6146.394 -6924.75)" xlink:href="#c"/>
    <radialGradient id="u" cx="9335.758" cy="928.614" r="279.14" fx="9335.758" fy="928.614" gradientTransform="matrix(-.58 .81 .37 .27 5408.004 -7400.97)" xlink:href="#c"/>
    <radialGradient id="v" cx="9235.78" cy="995.308" r="239.72" fx="9235.78" fy="995.308" gradientTransform="matrix(-.71757 .75695 .41101 .38362 6606.223 -6900.01)" xlink:href="#c"/>
    <radialGradient id="w" cx="9227.53" cy="1056.911" r="239.06" fx="9227.53" fy="1056.911" gradientTransform="matrix(-.79 .61 .32 .42 7378.244 -5561.68)" xlink:href="#c"/>
    <radialGradient id="x" cx="9250.925" cy="1019.179" r="172.76" fx="9250.925" fy="1019.179" gradientTransform="matrix(-.74 .67 .35 .39 6917.504 -5996.48)" xlink:href="#c"/>
    <radialGradient id="y" cx="9228.143" cy="1125.063" r="130.08" fx="9228.143" fy="1125.063" gradientTransform="matrix(-.67535 .78232 .36952 .32551 6243.716 -6904.065)" xlink:href="#c"/>
    <linearGradient id="z" x1="9298.56" x2="9279.08" y1="558.57" y2="622.79" gradientTransform="matrix(-1 0 0 1 9665.824 -512.47)" xlink:href="#a"/>
    <linearGradient id="A" x1="9267.4" x2="9249.37" y1="607.26" y2="677.24" gradientTransform="matrix(-1 0 0 1 9665.824 -512.47)" xlink:href="#a"/>
    <linearGradient id="B" x1="9237.22" x2="9225.03" y1="667.04" y2="739.74" gradientTransform="matrix(-1 0 0 1 9665.824 -512.47)" xlink:href="#a"/>
    <radialGradient id="C" cx="9223.446" cy="925.427" r="549.63" fx="9223.446" fy="925.427" gradientTransform="matrix(-.85 -.53 -.33 .53 8593.264 4784.65)" xlink:href="#d"/>
    <radialGradient id="D" cx="9345.382" cy="962.163" r="475.61" fx="9345.382" fy="962.163" gradientTransform="matrix(-.77 -.63 -.28 .34 7840.254 5990.98)" xlink:href="#e"/>
    <radialGradient id="E" cx="9340.823" cy="970.226" r="284.54" fx="9340.823" fy="970.226" gradientTransform="matrix(-.8 -.6 -.3 .4 8091.074 5680.58)" xlink:href="#f"/>
    <radialGradient id="F" cx="9444.651" cy="954.204" r="205.98" fx="9444.651" fy="954.204" gradientTransform="matrix(-.91 -.4 -.22 .5 9083.034 3787.73)" xlink:href="#f"/>
    <radialGradient id="G" cx="8891.88" cy="820.62" r="332.22" gradientTransform="matrix(-.39 -.92 -.41 .18 4298.694 8335.55)" xlink:href="#g"/>
    <radialGradient id="p" cx="9238.08" cy="936.83" r="549.63" gradientTransform="matrix(-.85 -.53 -.33 .53 8593.264 4784.65)" xlink:href="#d"/>
    <radialGradient id="o" cx="423.209" cy="375.134" r="208.821" fx="423.209" fy="375.134" gradientTransform="matrix(-2.09668 .37219 -.41689 -2.3485 1462.159 1056.024)" gradientUnits="userSpaceOnUse" xlink:href="#h"/>
    <radialGradient id="H" cx="8891.88" cy="820.62" r="332.22" gradientTransform="matrix(-.39 -.92 -.41 .18 4299.19 8335.55)" xlink:href="#g"/>
    <radialGradient id="I" cx="423.209" cy="375.134" r="208.821" fx="423.209" fy="375.134" gradientTransform="matrix(-2.09668 .37219 -.41689 -2.3485 1462.655 1056.024)" gradientUnits="userSpaceOnUse" xlink:href="#h"/>
    <radialGradient id="J" cx="9238.08" cy="936.83" r="549.63" gradientTransform="matrix(-.85 -.53 -.33 .53 8593.76 4784.65)" xlink:href="#d"/>
    <linearGradient id="K" x1="9214.33" x2="9206.69" y1="734.82" y2="821.32" gradientTransform="matrix(-1 0 0 1 9666.32 -512.47)" xlink:href="#a"/>
    <linearGradient id="L" x1="9211.86" x2="9249.56" y1="703.58" y2="703.58" gradientTransform="matrix(-1 0 0 1 9666.32 -512.47)" xlink:href="#b"/>
    <linearGradient id="M" x1="9332.47" x2="9310.71" y1="512.16" y2="581.2" gradientTransform="matrix(-1 0 0 1 9666.32 -512.47)" xlink:href="#a"/>
    <radialGradient id="N" cx="9379.521" cy="955.602" r="155.1" fx="9379.521" fy="955.602" gradientTransform="matrix(-.67 .75 .38 .34 6146.89 -6924.75)" xlink:href="#c"/>
    <radialGradient id="O" cx="9335.758" cy="928.614" r="279.14" fx="9335.758" fy="928.614" gradientTransform="matrix(-.58 .81 .37 .27 5408.5 -7400.97)" xlink:href="#c"/>
    <radialGradient id="P" cx="9235.78" cy="995.308" r="239.72" fx="9235.78" fy="995.308" gradientTransform="matrix(-.71757 .75695 .41101 .38362 6606.719 -6900.01)" xlink:href="#c"/>
    <radialGradient id="Q" cx="9227.53" cy="1056.911" r="239.06" fx="9227.53" fy="1056.911" gradientTransform="matrix(-.79 .61 .32 .42 7378.74 -5561.68)" xlink:href="#c"/>
    <radialGradient id="R" cx="9250.925" cy="1019.179" r="172.76" fx="9250.925" fy="1019.179" gradientTransform="matrix(-.74 .67 .35 .39 6918 -5996.48)" xlink:href="#c"/>
    <radialGradient id="S" cx="9228.143" cy="1125.063" r="130.08" fx="9228.143" fy="1125.063" gradientTransform="matrix(-.67535 .78232 .36952 .32551 6244.212 -6904.065)" xlink:href="#c"/>
    <linearGradient id="T" x1="9298.56" x2="9279.08" y1="558.57" y2="622.79" gradientTransform="matrix(-1 0 0 1 9666.32 -512.47)" xlink:href="#a"/>
    <linearGradient id="U" x1="9267.4" x2="9249.37" y1="607.26" y2="677.24" gradientTransform="matrix(-1 0 0 1 9666.32 -512.47)" xlink:href="#a"/>
    <linearGradient id="V" x1="9237.22" x2="9225.03" y1="667.04" y2="739.74" gradientTransform="matrix(-1 0 0 1 9666.32 -512.47)" xlink:href="#a"/>
    <radialGradient id="W" cx="9223.446" cy="925.427" r="549.63" fx="9223.446" fy="925.427" gradientTransform="matrix(-.85 -.53 -.33 .53 8593.76 4784.65)" xlink:href="#d"/>
    <radialGradient id="X" cx="9345.382" cy="962.163" r="475.61" fx="9345.382" fy="962.163" gradientTransform="matrix(-.77 -.63 -.28 .34 7840.75 5990.98)" xlink:href="#e"/>
    <radialGradient id="Y" cx="9340.823" cy="970.226" r="284.54" fx="9340.823" fy="970.226" gradientTransform="matrix(-.8 -.6 -.3 .4 8091.57 5680.58)" xlink:href="#f"/>
    <radialGradient id="Z" cx="9444.651" cy="954.204" r="205.98" fx="9444.651" fy="954.204" gradientTransform="matrix(-.91 -.4 -.22 .5 9083.53 3787.73)" xlink:href="#f"/>
    <radialGradient id="aa" cx="8891.88" cy="820.62" r="332.22" gradientTransform="matrix(-.39 -.92 -.41 .18 4299.19 8335.55)" xlink:href="#g"/>
    <radialGradient id="n" cx="8891.88" cy="820.62" r="332.22" gradientTransform="matrix(-.39 -.92 -.41 .18 4298.694 8335.55)" xlink:href="#g"/>
    <radialGradient id="m" cx="1950.91" cy="820.62" r="332.22" gradientTransform="matrix(.39 -.92 .41 .18 843.01 2468.32)" gradientUnits="userSpaceOnUse">
      <stop offset="0" stop-color="#f2551f"/>
      <stop offset="1" stop-color="#f0e106"/>
    </radialGradient>
    <radialGradient id="i" cx="1979.52" cy="-1191.62" r="549.78" gradientTransform="matrix(.85044 -.52607 .33142 .53578 689.68 485.98)" gradientUnits="userSpaceOnUse">
      <stop offset="0" stop-color="#ee7207"/>
      <stop offset=".84" stop-color="#f0e106"/>
    </radialGradient>
    <radialGradient id="j" cx="2213.9" cy="-1168.12" r="145.64" gradientTransform="matrix(.67 .75 -.38 .34 300.66 -2428.1)" gradientUnits="userSpaceOnUse">
      <stop offset=".44" stop-color="#f15222"/>
      <stop offset=".8" stop-color="#f6640e"/>
      <stop offset="1" stop-color="#fa7001"/>
    </radialGradient>
    <radialGradient id="k" cx="2025.6" cy="-1169.66" r="475.61" gradientTransform="matrix(.77461 -.63243 .27827 .34083 782.9 511.06)" gradientUnits="userSpaceOnUse">
      <stop offset="0" stop-color="#ee7207"/>
      <stop offset=".78" stop-color="#f0e106"/>
    </radialGradient>
    <radialGradient id="l" cx="2088.87" cy="-1151.04" r="284.54" gradientTransform="matrix(.8 -.6 .3 .4 766.99 567.64)" gradientUnits="userSpaceOnUse">
      <stop offset="0" stop-color="#ee7207"/>
      <stop offset="1" stop-color="#f0e106"/>
    </radialGradient>
  </defs>
  <rect width="24" height="24" fill="#1c1f24" rx="6" style="marker:none"/>
  <path fill="url(#n)" d="M328.514 1.45l1.45-1.45 1.42 1.48a510.47 510.47 0 0 1 37.24 43.85 503.7 503.7 0 0 1 98.68 244.31 20.72 20.72 0 0 1-6.54 17.58l-.08.07a501.18 501.18 0 0 0-44.39-140.69 502.92 502.92 0 0 0-60-94.67q-13.38-16.67-28.26-32.27a27.51 27.51 0 0 1 .48-38.21z" class="cls-161" opacity=".7" transform="matrix(.01748 0 0 .01748 3.533 5)"/>
  <path fill="url(#o)" d="M328.135 319.81c-92.368 0-175.734 38.535-234.903 100.4a323.44 323.44 0 0 1-.02-.01 327.32 327.32 0 0 0-4.833 5.208 326.67 326.67 0 0 0-20.461 24.666 327.32 327.32 0 0 0-.104.125l.01.004a325.775 325.775 0 0 0-8 11.156 133.93 133.93 0 0 0-20.01 106.282 322.48 322.48 0 0 0 24.11 67.6 324.45 324.45 0 0 0 44.84 68.429 325.18 325.18 0 0 0 49.38 47l.007-.025a324.07 324.07 0 0 0 53.052 33.255c2.16 1.08 4.33 2.134 6.51 3.16a145.47 145.47 0 0 0 54.24 13.78 148.32 148.32 0 0 0 145.26-92.51 500.18 500.18 0 0 0 25-80.78 326.18 326.18 0 0 0-23.986 11.964 326.18 326.18 0 0 1 23.998-11.985 503.82 503.82 0 0 0 10.447-72.568h.002a516.626 516.626 0 0 0 1.27-36.06c0-8.207-.197-16.37-.59-24.49h-.002a503.2 503.2 0 0 0-5.418-53.61 315.529 315.529 0 0 0-20-.611c-.23 0-.46.007-.69.008a326.8 326.8 0 0 1 .735-.038h.006c6.7.001 13.352.204 19.959.61a496.86 496.86 0 0 0 0-.002c.013 0 .027 0 .04.002a496.86 496.86 0 0 0-10.11-48.91 498.74 498.74 0 0 0-19.44-59.33 324.58 324.58 0 0 0-90.3-12.72zm67.84 121.946c-.538.052-1.075.107-1.612.162a326.8 326.8 0 0 1 .78-.103l.347-.034a326.8 326.8 0 0 1 .485-.025zm-20.717 2.69a322.491 322.491 0 0 0-79.703 23.833 325.67 325.67 0 0 1-.02 0 322.6 322.6 0 0 1 79.38-23.795v.006a326.8 326.8 0 0 1 .343-.045zm-85.602 26.538c-29.46 13.873-56.502 32.04-80.314 53.7 23.805-21.654 50.838-39.821 80.289-53.696a499.92 499.92 0 0 0 .025-.004zm-80.316 53.702zm195.24 122.748a326.18 326.18 0 0 0-10.89 6.869 326.18 326.18 0 0 0-3.29 2.074 326.18 326.18 0 0 1 14.18-8.943zm-27.047 18.244a326.18 326.18 0 0 0-13.138 10.252 326.18 326.18 0 0 1 13.138-10.252zm-25.088 20.853a326.18 326.18 0 0 0-12 11.467 326.18 326.18 0 0 1 4.145-4.494 326.18 326.18 0 0 1 7.855-6.973zm-22.877 23.264a326.18 326.18 0 0 0-10.742 12.543 326.18 326.18 0 0 1 3.66-4.865 326.18 326.18 0 0 1 7.082-7.678zm-20.416 25.402a326.18 326.18 0 0 0-7.293 10.477 326.18 326.18 0 0 0-2.117 3.043 326.18 326.18 0 0 1 9.41-13.52zm-17.789 27.344a326.18 326.18 0 0 0-1.89 3.39 326.18 326.18 0 0 0-6.082 10.92 326.18 326.18 0 0 1 2.595-5.44 326.18 326.18 0 0 1 5.377-8.87z" transform="matrix(.01748 0 0 .01748 3.533 5)"/>
  <path fill="url(#p)" d="M75.404 50.027c-26.567-.13-47.742 4.217-57.13 11.383-10.12 7.71-16.53 27.34-18.29 50.05-1.338 17.548.091 36.923 4.75 54.07a323.64 323.64 0 0 1 8.55 42.7c150.28 26.11 277.76 118.64 351.1 246.26a321.37 321.37 0 0 0 46.325-18.808l.004.008a323.67 323.67 0 0 0 32.8-18.83c-30.36-147-124.63-270.67-252.47-340.63-38.407-18.472-81.48-26.036-115.639-26.203zM13.284 208.27a328.11 328.11 0 0 1 2.77 42.66c0 10.473-.49 20.827-1.47 31.06a136.57 136.57 0 0 0-.33 21.67 133.73 133.73 0 0 0 50.44 96.47 323.63 323.63 0 0 0 201 69.62c10.433 0 20.736-.488 30.91-1.461a504.53 504.53 0 0 0-28.143-29.428 504.53 504.53 0 0 1 28.183 29.428 322.3 322.3 0 0 0 67.74-13.76c-73.34-127.62-200.82-220.15-351.1-246.26zM53.21 313.522a504.53 504.53 0 0 1 24.26 7.709 504.53 504.53 0 0 0-24.26-7.71zm47.64 16.189a504.53 504.53 0 0 1 23.532 10.164 504.53 504.53 0 0 0-23.531-10.164zm45.796 20.861a504.53 504.53 0 0 1 22.558 12.553 504.53 504.53 0 0 0-22.558-12.553zm43.472 25.315a504.53 504.53 0 0 1 21.362 14.857 504.53 504.53 0 0 0-21.362-14.857zm40.746 29.531a504.53 504.53 0 0 1 19.907 17.033 504.53 504.53 0 0 0-19.907-17.033z" transform="matrix(.01748 0 0 .01748 3.533 5)"/>
  <path fill="url(#q)" d="M442.454 231.53a500.37 500.37 0 0 1 18.2 75.77l.08-.07a20.72 20.72 0 0 0 6.54-17.58 505 505 0 0 0-13.31-69.41q-5.9 5.5-11.51 11.29z" class="cls-145" transform="matrix(.01748 0 0 .01748 3.533 5)"/>
  <path fill="url(#r)" d="M416.264 166.59a498.73 498.73 0 0 1 26.19 64.94q5.61-5.79 11.51-11.29a500.6 500.6 0 0 0-24-69.54q-7.13 7.72-13.7 15.89z" class="cls-146" transform="matrix(.01748 0 0 .01748 3.533 5)"/>
  <path fill="#eb3c03" d="M10.28 6.977a8.745 8.745 0 0 1 .528.935q.115-.143.24-.278a8.776 8.776 0 0 0-.523-1.025q-.13.18-.245.368z" class="cls-4"/>
  <path fill="url(#s)" d="M327.964 39.65q14.86 15.58 28.26 32.27 5.6-13.62 12.37-26.59a510.47 510.47 0 0 0-37.24-43.8l-1.42-1.48-1.45 1.45a27.51 27.51 0 0 0-.52 38.15z" class="cls-147" transform="matrix(.01748 0 0 .01748 3.533 5)"/>
  <path fill="url(#t)" d="M39.814 567.64a322.48 322.48 0 0 0 24.11 67.6c34.38-142.6 162.79-248.54 315.95-248.54a326.47 326.47 0 0 1 58 5.16 498.74 498.74 0 0 0-19.44-59.33 324.58 324.58 0 0 0-90.3-12.72c-111.43 0-209.76 56.08-268.31 141.55a133.93 133.93 0 0 0-20.01 106.28z" class="cls-148" transform="matrix(.01748 0 0 .01748 3.533 5)"/>
  <path fill="url(#u)" d="M63.924 635.24a324.45 324.45 0 0 0 44.84 68.43c28.75-150.09 160.75-263.51 319.18-263.51q10.07 0 20 .61a496.86 496.86 0 0 0-10.11-48.91 326.47 326.47 0 0 0-58-5.16c-153.12 0-281.53 105.94-315.91 248.54z" class="cls-149" transform="matrix(.01748 0 0 .01748 3.533 5)"/>
  <path fill="url(#v)" d="M108.764 703.67a325.18 325.18 0 0 0 49.38 47c29.72-139.69 149.2-246.18 295.21-256.23a503.2 503.2 0 0 0-5.42-53.64q-9.92-.62-20-.61c-158.42-.03-290.42 113.39-319.17 263.48z" class="cls-150" transform="matrix(.01748 0 0 .01748 3.533 5)"/>
  <path fill="url(#w)" d="M158.144 750.64a324.07 324.07 0 0 0 53.06 33.26c32.09-114.13 125-202.82 241.47-228.94q1.26-17.87 1.27-36.06 0-12.31-.59-24.49c-146.01 10.05-265.49 116.54-295.21 256.23z" class="cls-151" transform="matrix(.01748 0 0 .01748 3.533 5)"/>
  <path fill="url(#x)" d="M211.204 783.9q3.24 1.62 6.51 3.16a145.47 145.47 0 0 0 54.24 13.78 326.18 326.18 0 0 1 170.27-173.31 503.82 503.82 0 0 0 10.45-72.59c-116.51 26.14-209.38 114.83-241.47 228.96z" class="cls-152" transform="matrix(.01748 0 0 .01748 3.533 5)"/>
  <path fill="url(#y)" d="M271.954 800.84a148.32 148.32 0 0 0 145.26-92.51 500.18 500.18 0 0 0 25-80.78 326.18 326.18 0 0 0-170.26 173.29z" class="cls-153" transform="matrix(.01748 0 0 .01748 3.533 5)"/>
  <path fill="url(#z)" d="M356.224 71.92a500.6 500.6 0 0 1 29.8 41.19q6.62-10.8 14-21a501.72 501.72 0 0 0-31.48-46.76q-6.71 12.94-12.32 26.57z" class="cls-154" transform="matrix(.01748 0 0 .01748 3.533 5)"/>
  <path fill="url(#A)" d="M386.024 113.11a500.34 500.34 0 0 1 30.24 53.48q6.57-8.17 13.68-15.9a502.12 502.12 0 0 0-29.87-58.6q-7.43 10.22-14.05 21.02z" class="cls-155" transform="matrix(.01748 0 0 .01748 3.533 5)"/>
  <path fill="url(#B)" d="M416.264 166.59a498.73 498.73 0 0 1 26.19 64.94q5.61-5.79 11.51-11.29a500.6 500.6 0 0 0-24-69.54q-7.13 7.72-13.7 15.89z" class="cls-156" transform="matrix(.01748 0 0 .01748 3.533 5)"/>
  <path fill="none" d="M11.266 9.046a8.745 8.745 0 0 1 .318 1.325q.067-.062.136-.123a8.811 8.811 0 0 0-.253-1.398q-.103.095-.2.196z" class="cls-35"/>
  <path d="M8.178 13.21a5.692 5.692 0 0 0 1.284-.146 8.737 8.737 0 0 1-.872.168c-1.39.196-2.726.049-3.871-.364a5.72 5.72 0 0 1 .443-.524 5.653 5.653 0 0 0 3.016.866z" class="cls-18" opacity=".4"/>
  <path fill="#f15222" d="M10.085 11.76l.087-.002a5.706 5.706 0 0 1 1.014.09 8.684 8.684 0 0 1 .177.855q-.174-.01-.35-.01a5.712 5.712 0 0 0-.927.075z" class="cls-140"/>
  <path fill="url(#C)" d="M-.016 111.46c189.22 23.31 346 151.29 410.73 324.23a323.67 323.67 0 0 0 32.8-18.83c-30.36-147-124.63-270.67-252.47-340.63-68.28-32.84-151.31-31.2-172.77-14.82-10.12 7.71-16.53 27.34-18.29 50.05z" class="cls-157" transform="matrix(.01748 0 0 .01748 3.533 5)"/>
  <path fill="url(#D)" d="M4.734 165.53a323.64 323.64 0 0 1 8.55 42.7c150.28 26.11 277.76 118.64 351.1 246.26a321.37 321.37 0 0 0 46.33-18.81c-64.7-172.94-221.51-300.92-410.73-324.23-1.34 17.55.09 36.93 4.75 54.08z" class="cls-158" transform="matrix(.01748 0 0 .01748 3.533 5)"/>
  <path fill="url(#E)" d="M14.584 281.99a136.57 136.57 0 0 0-.33 21.67 504.53 504.53 0 0 1 282.39 164.63 322.3 322.3 0 0 0 67.74-13.76c-73.34-127.62-200.82-220.15-351.1-246.26a328.11 328.11 0 0 1 2.77 42.66q0 15.71-1.47 31.06z" class="cls-159" transform="matrix(.01748 0 0 .01748 3.533 5)"/>
  <path fill="url(#F)" d="M14.254 303.66a133.73 133.73 0 0 0 50.44 96.47 323.63 323.63 0 0 0 201 69.62q15.65 0 30.91-1.46a504.53 504.53 0 0 0-282.35-164.63z" class="cls-160" transform="matrix(.01748 0 0 .01748 3.533 5)"/>
  <path fill="url(#G)" d="M328.514 1.45l1.45-1.45 1.42 1.48a510.47 510.47 0 0 1 37.24 43.85 503.7 503.7 0 0 1 98.68 244.31 20.72 20.72 0 0 1-6.54 17.58l-.08.07a501.18 501.18 0 0 0-44.39-140.69 502.92 502.92 0 0 0-60-94.67q-13.38-16.67-28.26-32.27a27.51 27.51 0 0 1 .48-38.21z" class="cls-161" opacity=".7" transform="matrix(.01748 0 0 .01748 3.533 5)"/>
  <g>
    <path fill="url(#H)" d="M329.01 1.45L330.46 0l1.42 1.48a510.47 510.47 0 0 1 37.24 43.85 503.7 503.7 0 0 1 98.68 244.31 20.72 20.72 0 0 1-6.54 17.58l-.08.07a501.18 501.18 0 0 0-44.39-140.69 502.92 502.92 0 0 0-60-94.67q-13.38-16.67-28.26-32.27a27.51 27.51 0 0 1 .48-38.21z" class="cls-161" opacity=".7" transform="matrix(-.01748 0 0 .01748 20.475 5)"/>
    <path fill="url(#I)" d="M328.63 319.81c-92.367 0-175.733 38.535-234.901 100.4a323.44 323.44 0 0 1-.02-.01 327.32 327.32 0 0 0-4.834 5.208 326.689 326.689 0 0 0-20.461 24.666 327.32 327.32 0 0 0-.103.125l.01.004a326.113 326.113 0 0 0-8 11.157 133.93 133.93 0 0 0-20.01 106.28 322.48 322.48 0 0 0 24.109 67.6 324.45 324.45 0 0 0 44.84 68.43 325.18 325.18 0 0 0 49.38 47l.007-.025a324.07 324.07 0 0 0 53.052 33.255c2.16 1.08 4.33 2.134 6.51 3.16a145.47 145.47 0 0 0 54.24 13.78 148.32 148.32 0 0 0 145.26-92.51 500.18 500.18 0 0 0 25-80.78 326.18 326.18 0 0 0-23.986 11.964 326.18 326.18 0 0 1 23.998-11.985 503.82 503.82 0 0 0 10.447-72.568h.002a516.626 516.626 0 0 0 1.27-36.06c0-8.207-.197-16.37-.59-24.49h-.002a503.2 503.2 0 0 0-5.418-53.61 315.531 315.531 0 0 0-20-.611c-.23 0-.46.007-.69.008a326.8 326.8 0 0 1 .735-.038h.006c6.7.001 13.352.204 19.959.61a496.86 496.86 0 0 0 0-.002c.013 0 .027 0 .04.002a496.86 496.86 0 0 0-10.11-48.91 498.74 498.74 0 0 0-19.44-59.33 324.58 324.58 0 0 0-90.3-12.72zm67.84 121.946a323.325 323.325 0 0 0-1.61.162 326.8 326.8 0 0 1 .779-.104l.347-.033a326.8 326.8 0 0 1 .485-.025zm-20.716 2.69a322.491 322.491 0 0 0-79.703 23.833 325.67 325.67 0 0 1-.02 0 322.602 322.602 0 0 1 79.38-23.795v.006a326.8 326.8 0 0 1 .343-.045zm-85.602 26.538c-29.46 13.873-56.502 32.04-80.314 53.7 23.805-21.654 50.838-39.821 80.289-53.696a499.92 499.92 0 0 0 .025-.004zm-80.316 53.701zm195.24 122.748a326.18 326.18 0 0 0-10.89 6.87 326.18 326.18 0 0 0-3.29 2.074 326.18 326.18 0 0 1 14.18-8.943zm-27.047 18.245a326.18 326.18 0 0 0-13.138 10.252 326.18 326.18 0 0 1 13.138-10.252zm-25.088 20.853a326.18 326.18 0 0 0-12 11.467 326.18 326.18 0 0 1 4.145-4.494 326.18 326.18 0 0 1 7.855-6.973zm-22.877 23.264a326.18 326.18 0 0 0-10.742 12.543 326.18 326.18 0 0 1 3.66-4.865 326.18 326.18 0 0 1 7.082-7.678zm-20.416 25.402a326.18 326.18 0 0 0-7.293 10.477 326.18 326.18 0 0 0-2.117 3.043 326.18 326.18 0 0 1 9.41-13.52zm-17.789 27.344a326.18 326.18 0 0 0-1.89 3.39 326.18 326.18 0 0 0-6.082 10.92 326.18 326.18 0 0 1 2.595-5.44 326.18 326.18 0 0 1 5.377-8.87z" transform="matrix(-.01748 0 0 .01748 20.475 5)"/>
    <path fill="url(#J)" d="M75.9 50.027c-26.567-.13-47.742 4.217-57.13 11.383C8.65 69.12 2.24 88.75.48 111.46c-1.338 17.548.092 36.923 4.75 54.07a323.64 323.64 0 0 1 8.55 42.7c150.28 26.11 277.76 118.64 351.1 246.26a321.37 321.37 0 0 0 46.325-18.808l.004.008a323.67 323.67 0 0 0 32.8-18.83c-30.36-147-124.63-270.67-252.47-340.63C153.132 57.759 110.06 50.195 75.9 50.028zM13.78 208.27a328.11 328.11 0 0 1 2.77 42.66c0 10.473-.49 20.827-1.47 31.06a136.57 136.57 0 0 0-.33 21.67 133.73 133.73 0 0 0 50.44 96.47 323.63 323.63 0 0 0 201 69.62c10.433 0 20.736-.488 30.91-1.461a504.53 504.53 0 0 0-28.143-29.428 504.53 504.53 0 0 1 28.184 29.428 322.3 322.3 0 0 0 67.74-13.76C291.54 326.91 164.059 234.38 13.779 208.27zM53.706 313.52a504.53 504.53 0 0 1 24.26 7.71 504.53 504.53 0 0 0-24.26-7.71zm47.64 16.19a504.53 504.53 0 0 1 23.532 10.164 504.53 504.53 0 0 0-23.531-10.164zm45.796 20.861a504.53 504.53 0 0 1 22.558 12.553 504.53 504.53 0 0 0-22.558-12.553zm43.472 25.315a504.53 504.53 0 0 1 21.362 14.857 504.53 504.53 0 0 0-21.362-14.857zm40.746 29.531a504.53 504.53 0 0 1 19.907 17.033 504.53 504.53 0 0 0-19.907-17.033z" transform="matrix(-.01748 0 0 .01748 20.475 5)"/>
    <path fill="url(#K)" d="M442.95 231.53a500.37 500.37 0 0 1 18.2 75.77l.08-.07a20.72 20.72 0 0 0 6.54-17.58 505 505 0 0 0-13.31-69.41q-5.9 5.5-11.51 11.29z" class="cls-145" transform="matrix(-.01748 0 0 .01748 20.475 5)"/>
    <path fill="url(#L)" d="M416.76 166.59a498.73 498.73 0 0 1 26.19 64.94q5.61-5.79 11.51-11.29a500.6 500.6 0 0 0-24-69.54q-7.13 7.72-13.7 15.89z" class="cls-146" transform="matrix(-.01748 0 0 .01748 20.475 5)"/>
    <path fill="#eb3c03" d="M13.72 6.977a8.745 8.745 0 0 0-.528.935q-.115-.143-.24-.278a8.776 8.776 0 0 1 .523-1.025q.13.18.245.368z" class="cls-4"/>
    <path fill="url(#M)" d="M328.46 39.65q14.86 15.58 28.26 32.27 5.6-13.62 12.37-26.59a510.47 510.47 0 0 0-37.24-43.8L330.43.05l-1.45 1.45a27.51 27.51 0 0 0-.52 38.15z" class="cls-147" transform="matrix(-.01748 0 0 .01748 20.475 5)"/>
    <path fill="url(#N)" d="M40.31 567.64a322.48 322.48 0 0 0 24.11 67.6C98.8 492.64 227.21 386.7 380.37 386.7a326.47 326.47 0 0 1 58 5.16 498.74 498.74 0 0 0-19.44-59.33 324.58 324.58 0 0 0-90.3-12.72c-111.43 0-209.76 56.08-268.31 141.55a133.93 133.93 0 0 0-20.01 106.28z" class="cls-148" transform="matrix(-.01748 0 0 .01748 20.475 5)"/>
    <path fill="url(#O)" d="M64.42 635.24a324.45 324.45 0 0 0 44.84 68.43c28.75-150.09 160.75-263.51 319.18-263.51q10.07 0 20 .61a496.86 496.86 0 0 0-10.11-48.91 326.47 326.47 0 0 0-58-5.16c-153.12 0-281.53 105.94-315.91 248.54z" class="cls-149" transform="matrix(-.01748 0 0 .01748 20.475 5)"/>
    <path fill="url(#P)" d="M109.26 703.67a325.18 325.18 0 0 0 49.38 47c29.72-139.69 149.2-246.18 295.21-256.23a503.2 503.2 0 0 0-5.42-53.64q-9.92-.62-20-.61c-158.42-.03-290.42 113.39-319.17 263.48z" class="cls-150" transform="matrix(-.01748 0 0 .01748 20.475 5)"/>
    <path fill="url(#Q)" d="M158.64 750.64a324.07 324.07 0 0 0 53.06 33.26c32.09-114.13 125-202.82 241.47-228.94q1.26-17.87 1.27-36.06 0-12.31-.59-24.49c-146.01 10.05-265.49 116.54-295.21 256.23z" class="cls-151" transform="matrix(-.01748 0 0 .01748 20.475 5)"/>
    <path fill="url(#R)" d="M211.7 783.9q3.24 1.62 6.51 3.16a145.47 145.47 0 0 0 54.24 13.78 326.18 326.18 0 0 1 170.27-173.31 503.82 503.82 0 0 0 10.45-72.59C336.66 581.08 243.79 669.77 211.7 783.9z" class="cls-152" transform="matrix(-.01748 0 0 .01748 20.475 5)"/>
    <path fill="url(#S)" d="M272.45 800.84a148.32 148.32 0 0 0 145.26-92.51 500.18 500.18 0 0 0 25-80.78 326.18 326.18 0 0 0-170.26 173.29z" class="cls-153" transform="matrix(-.01748 0 0 .01748 20.475 5)"/>
    <path fill="url(#T)" d="M356.72 71.92a500.6 500.6 0 0 1 29.8 41.19q6.62-10.8 14-21a501.72 501.72 0 0 0-31.48-46.76q-6.71 12.94-12.32 26.57z" class="cls-154" transform="matrix(-.01748 0 0 .01748 20.475 5)"/>
    <path fill="url(#U)" d="M386.52 113.11a500.34 500.34 0 0 1 30.24 53.48q6.57-8.17 13.68-15.9a502.12 502.12 0 0 0-29.87-58.6q-7.43 10.22-14.05 21.02z" class="cls-155" transform="matrix(-.01748 0 0 .01748 20.475 5)"/>
    <path fill="url(#V)" d="M416.76 166.59a498.73 498.73 0 0 1 26.19 64.94q5.61-5.79 11.51-11.29a500.6 500.6 0 0 0-24-69.54q-7.13 7.72-13.7 15.89z" class="cls-156" transform="matrix(-.01748 0 0 .01748 20.475 5)"/>
    <path fill="none" d="M12.734 9.046a8.745 8.745 0 0 0-.318 1.325q-.067-.062-.136-.123a8.811 8.811 0 0 1 .253-1.398q.103.095.2.196z" class="cls-35"/>
    <path d="M15.822 13.21a5.692 5.692 0 0 1-1.284-.146 8.737 8.737 0 0 0 .872.168c1.39.196 2.726.049 3.871-.364a5.72 5.72 0 0 0-.443-.524 5.653 5.653 0 0 1-3.016.866z" class="cls-18" opacity=".4"/>
    <path fill="#f15222" d="M13.915 11.76l-.087-.002a5.706 5.706 0 0 0-1.014.09 8.684 8.684 0 0 0-.177.855q.174-.01.35-.01a5.712 5.712 0 0 1 .927.075z" class="cls-140"/>
    <path fill="url(#W)" d="M.48 111.46c189.22 23.31 346 151.29 410.73 324.23a323.67 323.67 0 0 0 32.8-18.83c-30.36-147-124.63-270.67-252.47-340.63-68.28-32.84-151.31-31.2-172.77-14.82C8.65 69.12 2.24 88.75.48 111.46z" class="cls-157" transform="matrix(-.01748 0 0 .01748 20.475 5)"/>
    <path fill="url(#X)" d="M5.23 165.53a323.64 323.64 0 0 1 8.55 42.7c150.28 26.11 277.76 118.64 351.1 246.26a321.37 321.37 0 0 0 46.33-18.81C346.51 262.74 189.7 134.76.48 111.45c-1.34 17.55.09 36.93 4.75 54.08z" class="cls-158" transform="matrix(-.01748 0 0 .01748 20.475 5)"/>
    <path fill="url(#Y)" d="M15.08 281.99a136.57 136.57 0 0 0-.33 21.67 504.53 504.53 0 0 1 282.39 164.63 322.3 322.3 0 0 0 67.74-13.76c-73.34-127.62-200.82-220.15-351.1-246.26a328.11 328.11 0 0 1 2.77 42.66q0 15.71-1.47 31.06z" class="cls-159" transform="matrix(-.01748 0 0 .01748 20.475 5)"/>
    <path fill="url(#Z)" d="M14.75 303.66a133.73 133.73 0 0 0 50.44 96.47 323.63 323.63 0 0 0 201 69.62q15.65 0 30.91-1.46A504.53 504.53 0 0 0 14.75 303.66z" class="cls-160" transform="matrix(-.01748 0 0 .01748 20.475 5)"/>
    <path fill="url(#aa)" d="M329.01 1.45L330.46 0l1.42 1.48a510.47 510.47 0 0 1 37.24 43.85 503.7 503.7 0 0 1 98.68 244.31 20.72 20.72 0 0 1-6.54 17.58l-.08.07a501.18 501.18 0 0 0-44.39-140.69 502.92 502.92 0 0 0-60-94.67q-13.38-16.67-28.26-32.27a27.51 27.51 0 0 1 .48-38.21z" class="cls-161" opacity=".7" transform="matrix(-.01748 0 0 .01748 20.475 5)"/>
  </g>
</svg>
